<?xml version="1.0" encoding="UTF-8"?>
<svg id="Layer_7" data-name="Layer 7" xmlns="http://www.w3.org/2000/svg" xmlns:xlink="http://www.w3.org/1999/xlink" viewBox="0 0 256 237.59">
  <defs>
    <style>
      .cls-1 {
        fill: #2e6180;
      }

      .cls-2 {
        fill: #2c5e7c;
      }

      .cls-3 {
        fill: none;
      }

      .cls-4 {
        fill: #295773;
      }

      .cls-5 {
        isolation: isolate;
      }

      .cls-6 {
        fill: #4899ca;
      }

      .cls-7 {
        fill: #2b5a77;
      }

      .cls-8 {
        clip-path: url(#clippath);
      }
    </style>
    <clipPath id="clippath">
      <path class="cls-3" d="M217.78,189.07v17.1c0,15.24-17.75,30.66-28.37,30.66-9.02-.14-134.54-.15-176.13-.15-8.32,0-13.03,0-13.28,0v-17.1c.25,0,4.96,0,13.28,0,41.6,0,167.12.01,176.13.15,10.62,0,28.37-15.41,28.37-30.66Z"/>
    </clipPath>
  </defs>
  <g class="cls-5">
    <g class="cls-5">
      <g class="cls-8">
        <g class="cls-5">
          <path class="cls-1" d="M217.78,189.07v17.1c0,3.8-1.1,7.61-2.92,11.19v-17.1c1.82-3.58,2.92-7.39,2.92-11.19"/>
          <path class="cls-2" d="M214.86,200.25v17.1c-1.6,3.16-3.77,6.13-6.22,8.76v-17.1c2.46-2.63,4.62-5.61,6.22-8.76"/>
          <path class="cls-7" d="M208.64,209.02v17.1c-2.59,2.77-5.5,5.17-8.44,6.98v-17.1c2.93-1.81,5.85-4.21,8.44-6.98"/>
          <path class="cls-4" d="M200.2,216v17.1c-3.79,2.35-7.61,3.73-10.79,3.73-9.02-.14-134.54-.15-176.13-.15-8.32,0-13.03,0-13.28,0v-17.1c.25,0,4.96,0,13.28,0,41.6,0,167.12.01,176.13.15,3.18,0,7-1.38,10.79-3.73"/>
        </g>
      </g>
    </g>
    <path class="cls-6" d="M131.71,7.5c28.52,0,52.62.17,60.78.68,24.47,1.53,25.29,31.43,25.29,45.22v135.66c0,15.24-17.75,30.66-28.37,30.66-9.02-.14-134.54-.15-176.13-.15-8.32,0-13.03,0-13.28,0V8.18c3.73-.03,74.68-.68,131.71-.68Z"/>
  </g>
</svg>